# xmcd
#
# Track frame offsets: 
#        150
#        144877
#        171170
#        229507
#
# Disc length: 4209 seconds
#
# Revision: 5
# Processed by: cddbd v1.5.2PL0 Copyright (c) Steve Scherf et al.
# Submitted via: ExactAudioCopy v0.99pb5
#
DISCID=27106f04
DTITLE=Messiaen, Olivier - Piano Works - Volume 4 (Peter Hill - Brilli
DTITLE=ant Classics, 7cd)
DYEAR=1988
DGENRE=Classical
TTITLE0=Catalogue d'oiseaux (1956-58) - Book 4 - La Rousserolle Effarv
TTITLE0=atte
TTITLE1=Catalogue d'oiseaux - Book 5 - I. L'Alouette Calandrelle
TTITLE2=Catalogue d'oiseaux - Book 5 - II. La Bouscarle
TTITLE3=Catalogue d'oiseaux - Book 6 - Le Merle de roche
EXTD=YEAR: 1988
EXTT0=
EXTT1=
EXTT2=
EXTT3=
PLAYORDER=
